<svg width="512" height="512" viewBox="0 0 512 512" fill="none" xmlns="http://www.w3.org/2000/svg">
<circle cx="256" cy="256" r="256" fill="white"/>
<path d="M257 421C222.179 421 192.64 408.858 168.384 384.574C144.128 360.29 132 330.718 132 295.856C132 267.848 140.259 242.744 156.777 220.546C173.295 198.348 194.946 183.376 221.732 175.629C215.78 174.139 209.976 171.979 204.321 169.148C198.667 166.317 193.607 162.667 189.143 158.198C179.321 148.365 172.997 136.67 170.17 123.113C167.342 109.556 166.673 95.7748 168.161 81.7706C182.149 80.2808 195.914 80.9512 209.455 83.7818C222.997 86.6125 234.679 92.9442 244.5 102.777C251.345 109.63 256.33 117.377 259.455 126.018C262.58 134.659 264.589 143.747 265.482 153.281C269.351 144.045 274.039 135.329 279.545 127.135C285.051 118.941 291.226 111.418 298.071 104.565C301.345 101.287 305.512 99.6483 310.571 99.6483C315.631 99.6483 319.798 101.287 323.071 104.565C326.345 107.842 327.982 112.014 327.982 117.079C327.982 122.144 326.345 126.316 323.071 129.593C316.524 136.149 310.72 143.374 305.661 151.27C300.601 159.166 296.881 167.584 294.5 176.522C320.69 184.865 341.821 199.987 357.893 221.887C373.964 243.787 382 268.444 382 295.856C382 330.718 369.872 360.29 345.616 384.574C321.36 408.858 291.821 421 257 421ZM257 385.245C281.702 385.245 302.759 376.529 320.17 359.098C337.58 341.668 346.286 320.587 346.286 295.856C346.286 271.125 337.58 250.044 320.17 232.614C302.759 215.183 281.702 206.468 257 206.468C232.298 206.468 211.241 215.183 193.83 232.614C176.42 250.044 167.714 271.125 167.714 295.856C167.714 320.587 176.42 341.668 193.83 359.098C211.241 376.529 232.298 385.245 257 385.245Z" fill="#F43F5E"/>
</svg>
