<svg width="180" height="56" viewBox="0 0 180 56" fill="none" xmlns="http://www.w3.org/2000/svg">
<path d="M16.375 48.4887C11.8134 48.4887 7.94382 46.9 4.76629 43.7225C1.58877 40.5449 0 36.6754 0 32.1138C0 28.4489 1.08192 25.1641 3.24576 22.2595C5.4096 19.3549 8.24598 17.3958 11.7549 16.3821C10.9751 16.1871 10.2149 15.9045 9.47411 15.5341C8.73333 15.1637 8.07054 14.6861 7.48571 14.1013C6.19911 12.8147 5.37061 11.2844 5.00022 9.51043C4.62984 7.73647 4.54211 5.93327 4.73705 4.10083C6.56949 3.90589 8.37269 3.99361 10.1467 4.364C11.9206 4.73439 13.4509 5.56288 14.7375 6.84949C15.6342 7.74622 16.2873 8.75991 16.6967 9.89056C17.106 11.0212 17.3692 12.2104 17.4862 13.458C17.993 12.2493 18.6071 11.1089 19.3283 10.0368C20.0496 8.96459 20.8586 7.98014 21.7554 7.08342C22.1842 6.65455 22.7301 6.44012 23.3929 6.44012C24.0557 6.44012 24.6015 6.65455 25.0304 7.08342C25.4592 7.51229 25.6737 8.05812 25.6737 8.72092C25.6737 9.38371 25.4592 9.92955 25.0304 10.3584C24.1726 11.2162 23.4124 12.1616 22.7496 13.1948C22.0868 14.228 21.5994 15.3294 21.2875 16.499C24.7185 17.5907 27.4866 19.5693 29.592 22.435C31.6973 25.3006 32.75 28.5269 32.75 32.1138C32.75 36.6754 31.1612 40.5449 27.9837 43.7225C24.8062 46.9 20.9366 48.4887 16.375 48.4887ZM16.375 43.8102C19.611 43.8102 22.3694 42.6698 24.6502 40.389C26.931 38.1082 28.0714 35.3498 28.0714 32.1138C28.0714 28.8777 26.931 26.1193 24.6502 23.8385C22.3694 21.5577 19.611 20.4173 16.375 20.4173C13.139 20.4173 10.3806 21.5577 8.09978 23.8385C5.81897 26.1193 4.67857 28.8777 4.67857 32.1138C4.67857 35.3498 5.81897 38.1082 8.09978 40.389C10.3806 42.6698 13.139 43.8102 16.375 43.8102Z" fill="#F43F5E"/>
<path d="M62.846 18.072C62.462 17.624 61.95 17.192 61.31 16.776C60.67 16.36 59.95 15.992 59.15 15.672C58.35 15.32 57.47 15.048 56.51 14.856C55.582 14.632 54.606 14.52 53.582 14.52C50.958 14.52 49.022 15.016 47.774 16.008C46.526 17 45.902 18.36 45.902 20.088C45.902 21.304 46.222 22.264 46.862 22.968C47.502 23.672 48.478 24.248 49.79 24.696C51.134 25.144 52.83 25.608 54.878 26.088C57.246 26.6 59.294 27.224 61.022 27.96C62.75 28.696 64.078 29.688 65.006 30.936C65.934 32.152 66.398 33.784 66.398 35.832C66.398 37.464 66.078 38.888 65.438 40.104C64.83 41.288 63.966 42.28 62.846 43.08C61.726 43.848 60.414 44.424 58.91 44.808C57.406 45.16 55.774 45.336 54.014 45.336C52.286 45.336 50.59 45.16 48.926 44.808C47.294 44.424 45.742 43.88 44.27 43.176C42.798 42.472 41.422 41.592 40.142 40.536L42.206 36.888C42.718 37.432 43.374 37.976 44.174 38.52C45.006 39.032 45.934 39.512 46.958 39.96C48.014 40.408 49.15 40.776 50.366 41.064C51.582 41.32 52.83 41.448 54.11 41.448C56.542 41.448 58.43 41.016 59.774 40.152C61.118 39.256 61.79 37.96 61.79 36.264C61.79 34.984 61.406 33.96 60.638 33.192C59.902 32.424 58.798 31.784 57.326 31.272C55.854 30.76 54.062 30.248 51.95 29.736C49.646 29.16 47.71 28.536 46.142 27.864C44.574 27.16 43.39 26.248 42.59 25.128C41.822 24.008 41.438 22.552 41.438 20.76C41.438 18.584 41.966 16.744 43.022 15.24C44.078 13.736 45.534 12.6 47.39 11.832C49.246 11.064 51.342 10.68 53.678 10.68C55.214 10.68 56.638 10.84 57.95 11.16C59.294 11.48 60.542 11.928 61.694 12.504C62.846 13.08 63.902 13.768 64.862 14.568L62.846 18.072ZM71.408 45V19.944H75.632V45H71.408ZM71.408 15.24V9.96H75.632V15.24H71.408ZM95.4305 43.752C95.0785 43.912 94.5985 44.12 93.9905 44.376C93.3825 44.632 92.6785 44.856 91.8785 45.048C91.0785 45.24 90.2305 45.336 89.3345 45.336C88.3105 45.336 87.3665 45.16 86.5025 44.808C85.6385 44.424 84.9505 43.848 84.4385 43.08C83.9265 42.28 83.6705 41.288 83.6705 40.104V23.256H80.2625V19.944H83.6705V11.592H87.8945V19.944H93.5105V23.256H87.8945V38.808C87.9585 39.704 88.2625 40.376 88.8065 40.824C89.3505 41.24 89.9905 41.448 90.7265 41.448C91.5585 41.448 92.3265 41.304 93.0305 41.016C93.7345 40.728 94.1985 40.52 94.4225 40.392L95.4305 43.752ZM97.3775 37.752C97.3775 36.152 97.8255 34.776 98.7215 33.624C99.6495 32.44 100.914 31.528 102.514 30.888C104.114 30.248 105.97 29.928 108.082 29.928C109.202 29.928 110.386 30.024 111.634 30.216C112.882 30.376 113.986 30.632 114.946 30.984V29.16C114.946 27.24 114.37 25.736 113.218 24.648C112.066 23.528 110.434 22.968 108.322 22.968C106.946 22.968 105.618 23.224 104.338 23.736C103.09 24.216 101.762 24.92 100.354 25.848L98.8175 22.872C100.45 21.752 102.082 20.92 103.714 20.376C105.346 19.8 107.042 19.512 108.802 19.512C112.002 19.512 114.53 20.408 116.386 22.2C118.242 23.96 119.17 26.424 119.17 29.592V40.2C119.17 40.712 119.266 41.096 119.458 41.352C119.682 41.576 120.034 41.704 120.514 41.736V45C120.098 45.064 119.73 45.112 119.41 45.144C119.122 45.176 118.882 45.192 118.69 45.192C117.698 45.192 116.946 44.92 116.434 44.376C115.954 43.832 115.682 43.256 115.618 42.648L115.522 41.064C114.434 42.472 113.01 43.56 111.25 44.328C109.49 45.096 107.746 45.48 106.018 45.48C104.354 45.48 102.866 45.144 101.554 44.472C100.242 43.768 99.2175 42.84 98.4815 41.688C97.7455 40.504 97.3775 39.192 97.3775 37.752ZM113.698 39.528C114.082 39.08 114.386 38.632 114.61 38.184C114.834 37.704 114.946 37.304 114.946 36.984V33.864C113.954 33.48 112.914 33.192 111.826 33C110.738 32.776 109.666 32.664 108.609 32.664C106.466 32.664 104.722 33.096 103.378 33.96C102.066 34.792 101.41 35.944 101.41 37.416C101.41 38.216 101.618 39 102.034 39.768C102.482 40.504 103.122 41.112 103.954 41.592C104.818 42.072 105.874 42.312 107.122 42.312C108.434 42.312 109.682 42.056 110.866 41.544C112.05 41 112.994 40.328 113.698 39.528ZM127.08 45V23.256H123.672V19.944H127.08V19.416C127.08 17.368 127.384 15.608 127.992 14.136C128.632 12.632 129.528 11.48 130.68 10.68C131.832 9.88 133.192 9.48 134.76 9.48C135.752 9.48 136.728 9.624 137.688 9.912C138.648 10.168 139.512 10.536 140.28 11.016L139.224 14.136C138.776 13.816 138.216 13.56 137.544 13.368C136.904 13.176 136.264 13.08 135.624 13.08C134.248 13.08 133.176 13.624 132.408 14.712C131.672 15.768 131.304 17.288 131.304 19.272V19.944H137.976V23.256H131.304V45H127.08ZM140.221 37.752C140.221 36.152 140.669 34.776 141.565 33.624C142.493 32.44 143.757 31.528 145.357 30.888C146.957 30.248 148.813 29.928 150.925 29.928C152.045 29.928 153.229 30.024 154.477 30.216C155.725 30.376 156.829 30.632 157.789 30.984V29.16C157.789 27.24 157.213 25.736 156.061 24.648C154.909 23.528 153.277 22.968 151.165 22.968C149.789 22.968 148.461 23.224 147.181 23.736C145.933 24.216 144.605 24.92 143.197 25.848L141.661 22.872C143.293 21.752 144.925 20.92 146.557 20.376C148.189 19.8 149.885 19.512 151.645 19.512C154.845 19.512 157.373 20.408 159.229 22.2C161.085 23.96 162.013 26.424 162.013 29.592V40.2C162.013 40.712 162.109 41.096 162.301 41.352C162.525 41.576 162.877 41.704 163.357 41.736V45C162.941 45.064 162.573 45.112 162.253 45.144C161.965 45.176 161.725 45.192 161.533 45.192C160.541 45.192 159.789 44.92 159.277 44.376C158.797 43.832 158.525 43.256 158.461 42.648L158.365 41.064C157.277 42.472 155.853 43.56 154.093 44.328C152.333 45.096 150.589 45.48 148.861 45.48C147.197 45.48 145.709 45.144 144.397 44.472C143.085 43.768 142.061 42.84 141.325 41.688C140.589 40.504 140.221 39.192 140.221 37.752ZM156.541 39.528C156.925 39.08 157.229 38.632 157.453 38.184C157.677 37.704 157.789 37.304 157.789 36.984V33.864C156.797 33.48 155.757 33.192 154.669 33C153.581 32.776 152.509 32.664 151.453 32.664C149.309 32.664 147.565 33.096 146.221 33.96C144.909 34.792 144.253 35.944 144.253 37.416C144.253 38.216 144.461 39 144.877 39.768C145.325 40.504 145.965 41.112 146.797 41.592C147.661 42.072 148.717 42.312 149.965 42.312C151.277 42.312 152.525 42.056 153.709 41.544C154.893 41 155.837 40.328 156.541 39.528ZM168.863 9.96H173.087V38.52C173.087 39.896 173.279 40.744 173.663 41.064C174.047 41.384 174.511 41.544 175.055 41.544C175.727 41.544 176.367 41.48 176.975 41.352C177.583 41.192 178.095 41.032 178.511 40.872L179.183 44.328C178.479 44.616 177.647 44.856 176.687 45.048C175.727 45.24 174.879 45.336 174.143 45.336C172.511 45.336 171.215 44.872 170.255 43.944C169.327 43.016 168.863 41.72 168.863 40.056V9.96Z" fill="black"/>
</svg>
